<mxfile host="Electron" modified="2023-10-18T07:03:34.142Z" agent="Mozilla/5.0 (Macintosh; Intel Mac OS X 10_15_7) AppleWebKit/537.36 (KHTML, like Gecko) draw.io/21.2.8 Chrome/112.0.5615.165 Electron/24.2.0 Safari/537.36" etag="9xVu1hDqKnytZXw4xaNP" version="21.2.8" type="device">
  <diagram name="Page-1" id="m7LgojhkVV1RunFnOX2p">
    <mxGraphModel dx="792" dy="483" grid="1" gridSize="10" guides="1" tooltips="1" connect="1" arrows="1" fold="1" page="1" pageScale="1" pageWidth="827" pageHeight="1169" math="0" shadow="0">
      <root>
        <mxCell id="0" />
        <mxCell id="1" parent="0" />
        <mxCell id="sRkpq67CHHRW4R_DKQx_-1" value="Key" style="shape=table;startSize=30;container=1;collapsible=0;childLayout=tableLayout;strokeColor=default;fontSize=16;fontStyle=1" parent="1" vertex="1">
          <mxGeometry x="100" y="170" width="190" height="450" as="geometry" />
        </mxCell>
        <mxCell id="sRkpq67CHHRW4R_DKQx_-2" value="" style="shape=tableRow;horizontal=0;startSize=0;swimlaneHead=0;swimlaneBody=0;strokeColor=inherit;top=0;left=0;bottom=0;right=0;collapsible=0;dropTarget=0;fillColor=none;points=[[0,0.5],[1,0.5]];portConstraint=eastwest;fontSize=11;" parent="sRkpq67CHHRW4R_DKQx_-1" vertex="1">
          <mxGeometry y="30" width="190" height="61" as="geometry" />
        </mxCell>
        <mxCell id="sRkpq67CHHRW4R_DKQx_-3" value="IndexingKey(SPORT, 1)" style="shape=partialRectangle;html=1;whiteSpace=wrap;connectable=0;strokeColor=#23445d;overflow=hidden;fillColor=#bac8d3;top=0;left=0;bottom=0;right=0;pointerEvents=1;fontSize=8;" parent="sRkpq67CHHRW4R_DKQx_-2" vertex="1">
          <mxGeometry width="190" height="61" as="geometry">
            <mxRectangle width="190" height="61" as="alternateBounds" />
          </mxGeometry>
        </mxCell>
        <mxCell id="sRkpq67CHHRW4R_DKQx_-6" value="" style="shape=tableRow;horizontal=0;startSize=0;swimlaneHead=0;swimlaneBody=0;strokeColor=inherit;top=0;left=0;bottom=0;right=0;collapsible=0;dropTarget=0;fillColor=none;points=[[0,0.5],[1,0.5]];portConstraint=eastwest;fontSize=11;" parent="sRkpq67CHHRW4R_DKQx_-1" vertex="1">
          <mxGeometry y="91" width="190" height="61" as="geometry" />
        </mxCell>
        <mxCell id="sRkpq67CHHRW4R_DKQx_-7" value="IndexingKey(COMPETITION, 1)" style="shape=partialRectangle;html=1;whiteSpace=wrap;connectable=0;strokeColor=#6c8ebf;overflow=hidden;fillColor=#dae8fc;top=0;left=0;bottom=0;right=0;pointerEvents=1;fontSize=8;" parent="sRkpq67CHHRW4R_DKQx_-6" vertex="1">
          <mxGeometry width="190" height="61" as="geometry">
            <mxRectangle width="190" height="61" as="alternateBounds" />
          </mxGeometry>
        </mxCell>
        <mxCell id="sRkpq67CHHRW4R_DKQx_-10" value="" style="shape=tableRow;horizontal=0;startSize=0;swimlaneHead=0;swimlaneBody=0;strokeColor=inherit;top=0;left=0;bottom=0;right=0;collapsible=0;dropTarget=0;fillColor=none;points=[[0,0.5],[1,0.5]];portConstraint=eastwest;fontSize=11;" parent="sRkpq67CHHRW4R_DKQx_-1" vertex="1">
          <mxGeometry y="152" width="190" height="61" as="geometry" />
        </mxCell>
        <mxCell id="sRkpq67CHHRW4R_DKQx_-11" value="IndexingKey(COMPETITION, 2)" style="shape=partialRectangle;html=1;whiteSpace=wrap;connectable=0;strokeColor=#9673a6;overflow=hidden;fillColor=#e1d5e7;top=0;left=0;bottom=0;right=0;pointerEvents=1;fontSize=8;" parent="sRkpq67CHHRW4R_DKQx_-10" vertex="1">
          <mxGeometry width="190" height="61" as="geometry">
            <mxRectangle width="190" height="61" as="alternateBounds" />
          </mxGeometry>
        </mxCell>
        <mxCell id="sRkpq67CHHRW4R_DKQx_-24" style="shape=tableRow;horizontal=0;startSize=0;swimlaneHead=0;swimlaneBody=0;strokeColor=inherit;top=0;left=0;bottom=0;right=0;collapsible=0;dropTarget=0;fillColor=none;points=[[0,0.5],[1,0.5]];portConstraint=eastwest;fontSize=11;" parent="sRkpq67CHHRW4R_DKQx_-1" vertex="1">
          <mxGeometry y="213" width="190" height="60" as="geometry" />
        </mxCell>
        <mxCell id="sRkpq67CHHRW4R_DKQx_-25" value="IndexingKey(EVENT, 531321)" style="shape=partialRectangle;html=1;whiteSpace=wrap;connectable=0;strokeColor=#82b366;overflow=hidden;fillColor=#d5e8d4;top=0;left=0;bottom=0;right=0;pointerEvents=1;fontSize=8;" parent="sRkpq67CHHRW4R_DKQx_-24" vertex="1">
          <mxGeometry width="190" height="60" as="geometry">
            <mxRectangle width="190" height="60" as="alternateBounds" />
          </mxGeometry>
        </mxCell>
        <mxCell id="hXn4IVePBPBuUXVvyxEm-8" style="shape=tableRow;horizontal=0;startSize=0;swimlaneHead=0;swimlaneBody=0;strokeColor=inherit;top=0;left=0;bottom=0;right=0;collapsible=0;dropTarget=0;fillColor=none;points=[[0,0.5],[1,0.5]];portConstraint=eastwest;fontSize=11;" parent="sRkpq67CHHRW4R_DKQx_-1" vertex="1">
          <mxGeometry y="273" width="190" height="59" as="geometry" />
        </mxCell>
        <mxCell id="hXn4IVePBPBuUXVvyxEm-9" value="IndexingKey(EVENT, 338123)" style="shape=partialRectangle;html=1;whiteSpace=wrap;connectable=0;strokeColor=#d6b656;overflow=hidden;fillColor=#fff2cc;top=0;left=0;bottom=0;right=0;pointerEvents=1;fontSize=8;" parent="hXn4IVePBPBuUXVvyxEm-8" vertex="1">
          <mxGeometry width="190" height="59" as="geometry">
            <mxRectangle width="190" height="59" as="alternateBounds" />
          </mxGeometry>
        </mxCell>
        <mxCell id="hXn4IVePBPBuUXVvyxEm-10" style="shape=tableRow;horizontal=0;startSize=0;swimlaneHead=0;swimlaneBody=0;strokeColor=inherit;top=0;left=0;bottom=0;right=0;collapsible=0;dropTarget=0;fillColor=none;points=[[0,0.5],[1,0.5]];portConstraint=eastwest;fontSize=11;" parent="sRkpq67CHHRW4R_DKQx_-1" vertex="1">
          <mxGeometry y="332" width="190" height="59" as="geometry" />
        </mxCell>
        <mxCell id="hXn4IVePBPBuUXVvyxEm-11" value="IndexingKey(MARKET, 671231)" style="shape=partialRectangle;html=1;whiteSpace=wrap;connectable=0;strokeColor=#0e8088;overflow=hidden;fillColor=#b0e3e6;top=0;left=0;bottom=0;right=0;pointerEvents=1;fontSize=8;" parent="hXn4IVePBPBuUXVvyxEm-10" vertex="1">
          <mxGeometry width="190" height="59" as="geometry">
            <mxRectangle width="190" height="59" as="alternateBounds" />
          </mxGeometry>
        </mxCell>
        <mxCell id="sRkpq67CHHRW4R_DKQx_-22" style="shape=tableRow;horizontal=0;startSize=0;swimlaneHead=0;swimlaneBody=0;strokeColor=inherit;top=0;left=0;bottom=0;right=0;collapsible=0;dropTarget=0;fillColor=none;points=[[0,0.5],[1,0.5]];portConstraint=eastwest;fontSize=8;" parent="sRkpq67CHHRW4R_DKQx_-1" vertex="1">
          <mxGeometry y="391" width="190" height="59" as="geometry" />
        </mxCell>
        <mxCell id="sRkpq67CHHRW4R_DKQx_-23" value="IndexingKey(MARKET, 781231)" style="shape=partialRectangle;html=1;whiteSpace=wrap;connectable=0;strokeColor=#d79b00;overflow=hidden;fillColor=#ffe6cc;top=0;left=0;bottom=0;right=0;pointerEvents=1;fontSize=8;" parent="sRkpq67CHHRW4R_DKQx_-22" vertex="1">
          <mxGeometry width="190" height="59" as="geometry">
            <mxRectangle width="190" height="59" as="alternateBounds" />
          </mxGeometry>
        </mxCell>
        <mxCell id="sRkpq67CHHRW4R_DKQx_-15" value="Value" style="shape=table;startSize=30;container=1;collapsible=0;childLayout=tableLayout;strokeColor=default;fontSize=16;fontStyle=1" parent="1" vertex="1">
          <mxGeometry x="386" y="170" width="573" height="450" as="geometry" />
        </mxCell>
        <mxCell id="sRkpq67CHHRW4R_DKQx_-16" value="" style="shape=tableRow;horizontal=0;startSize=0;swimlaneHead=0;swimlaneBody=0;strokeColor=inherit;top=0;left=0;bottom=0;right=0;collapsible=0;dropTarget=0;fillColor=none;points=[[0,0.5],[1,0.5]];portConstraint=eastwest;fontSize=16;" parent="sRkpq67CHHRW4R_DKQx_-15" vertex="1">
          <mxGeometry y="30" width="573" height="60" as="geometry" />
        </mxCell>
        <mxCell id="sRkpq67CHHRW4R_DKQx_-17" value="&lt;b style=&quot;font-size: 9px;&quot;&gt;Set(&lt;/b&gt;&lt;br style=&quot;font-size: 9px;&quot;&gt;&lt;font style=&quot;font-size: 9px;&quot;&gt;Rule that blocks a &lt;font color=&quot;#ff0000&quot;&gt;sport with the ID 1&lt;/font&gt;&lt;br style=&quot;font-size: 9px;&quot;&gt;Rule that allows an event with the ID 531321 that belongs to the &lt;font color=&quot;#ff0000&quot;&gt;sport with the ID 1&lt;/font&gt;&lt;br style=&quot;font-size: 9px;&quot;&gt;Rule that allows an event with the ID 338123 that belongs to the competition with the ID 1 and the &lt;font color=&quot;#ff0000&quot;&gt;sport with the ID 1&lt;/font&gt;&lt;br&gt;&lt;/font&gt;" style="shape=partialRectangle;html=1;whiteSpace=wrap;connectable=0;strokeColor=#23445d;overflow=hidden;fillColor=#bac8d3;top=0;left=0;bottom=0;right=0;pointerEvents=1;fontSize=9;" parent="sRkpq67CHHRW4R_DKQx_-16" vertex="1">
          <mxGeometry width="573" height="60" as="geometry">
            <mxRectangle width="573" height="60" as="alternateBounds" />
          </mxGeometry>
        </mxCell>
        <mxCell id="sRkpq67CHHRW4R_DKQx_-31" style="shape=tableRow;horizontal=0;startSize=0;swimlaneHead=0;swimlaneBody=0;strokeColor=inherit;top=0;left=0;bottom=0;right=0;collapsible=0;dropTarget=0;fillColor=none;points=[[0,0.5],[1,0.5]];portConstraint=eastwest;fontSize=11;" parent="sRkpq67CHHRW4R_DKQx_-15" vertex="1">
          <mxGeometry y="90" width="573" height="62" as="geometry" />
        </mxCell>
        <mxCell id="sRkpq67CHHRW4R_DKQx_-32" value="&lt;b style=&quot;border-color: var(--border-color); font-size: 9px;&quot;&gt;Set(&lt;/b&gt;&lt;br style=&quot;border-color: var(--border-color); font-size: 9px;&quot;&gt;&lt;font style=&quot;font-size: 9px;&quot;&gt;Rule that allows an event with the ID 338123 that belongs to the &lt;font color=&quot;#ff0000&quot;&gt;competition with the ID 1&lt;/font&gt; and the&amp;nbsp;&lt;font style=&quot;border-color: var(--border-color);&quot;&gt;sport with the ID 1&lt;/font&gt;&lt;br style=&quot;border-color: var(--border-color);&quot;&gt;&lt;/font&gt;Rule that blocks a market with the ID 781231 that belongs to the &lt;font color=&quot;#ff0000&quot;&gt;competition with the ID 1&lt;/font&gt;&lt;b style=&quot;font-size: 9px;&quot;&gt;)&lt;/b&gt;" style="shape=partialRectangle;html=1;whiteSpace=wrap;connectable=0;strokeColor=#6c8ebf;overflow=hidden;fillColor=#dae8fc;top=0;left=0;bottom=0;right=0;pointerEvents=1;fontSize=9;" parent="sRkpq67CHHRW4R_DKQx_-31" vertex="1">
          <mxGeometry width="573" height="62" as="geometry">
            <mxRectangle width="573" height="62" as="alternateBounds" />
          </mxGeometry>
        </mxCell>
        <mxCell id="sRkpq67CHHRW4R_DKQx_-29" style="shape=tableRow;horizontal=0;startSize=0;swimlaneHead=0;swimlaneBody=0;strokeColor=inherit;top=0;left=0;bottom=0;right=0;collapsible=0;dropTarget=0;fillColor=none;points=[[0,0.5],[1,0.5]];portConstraint=eastwest;fontSize=11;" parent="sRkpq67CHHRW4R_DKQx_-15" vertex="1">
          <mxGeometry y="152" width="573" height="61" as="geometry" />
        </mxCell>
        <mxCell id="sRkpq67CHHRW4R_DKQx_-30" value="&lt;b style=&quot;border-color: var(--border-color); font-size: 9px;&quot;&gt;Set(&lt;/b&gt;&lt;br style=&quot;border-color: var(--border-color); font-size: 9px;&quot;&gt;Rule that allows a market with the ID 671231 that belongs to the &lt;font color=&quot;#ff0000&quot;&gt;competition with the ID 2&lt;/font&gt;&lt;b style=&quot;font-size: 9px;&quot;&gt;)&lt;/b&gt;" style="shape=partialRectangle;html=1;whiteSpace=wrap;connectable=0;strokeColor=#9673a6;overflow=hidden;fillColor=#e1d5e7;top=0;left=0;bottom=0;right=0;pointerEvents=1;fontSize=9;" parent="sRkpq67CHHRW4R_DKQx_-29" vertex="1">
          <mxGeometry width="573" height="61" as="geometry">
            <mxRectangle width="573" height="61" as="alternateBounds" />
          </mxGeometry>
        </mxCell>
        <mxCell id="sRkpq67CHHRW4R_DKQx_-18" value="" style="shape=tableRow;horizontal=0;startSize=0;swimlaneHead=0;swimlaneBody=0;strokeColor=inherit;top=0;left=0;bottom=0;right=0;collapsible=0;dropTarget=0;fillColor=none;points=[[0,0.5],[1,0.5]];portConstraint=eastwest;fontSize=11;" parent="sRkpq67CHHRW4R_DKQx_-15" vertex="1">
          <mxGeometry y="213" width="573" height="59" as="geometry" />
        </mxCell>
        <mxCell id="sRkpq67CHHRW4R_DKQx_-19" value="&lt;b style=&quot;border-color: var(--border-color); font-size: 9px;&quot;&gt;Set(&lt;/b&gt;&lt;br style=&quot;border-color: var(--border-color); font-size: 9px;&quot;&gt;Rule that allows an &lt;font color=&quot;#ff0000&quot;&gt;event with the ID 531321&lt;/font&gt; that belongs to the sport with the ID 1&lt;b style=&quot;font-size: 9px;&quot;&gt;)&lt;/b&gt;" style="shape=partialRectangle;html=1;whiteSpace=wrap;connectable=0;strokeColor=#82b366;overflow=hidden;fillColor=#d5e8d4;top=0;left=0;bottom=0;right=0;pointerEvents=1;fontSize=9;" parent="sRkpq67CHHRW4R_DKQx_-18" vertex="1">
          <mxGeometry width="573" height="59" as="geometry">
            <mxRectangle width="573" height="59" as="alternateBounds" />
          </mxGeometry>
        </mxCell>
        <mxCell id="hXn4IVePBPBuUXVvyxEm-12" style="shape=tableRow;horizontal=0;startSize=0;swimlaneHead=0;swimlaneBody=0;strokeColor=inherit;top=0;left=0;bottom=0;right=0;collapsible=0;dropTarget=0;fillColor=none;points=[[0,0.5],[1,0.5]];portConstraint=eastwest;fontSize=11;" parent="sRkpq67CHHRW4R_DKQx_-15" vertex="1">
          <mxGeometry y="272" width="573" height="60" as="geometry" />
        </mxCell>
        <mxCell id="hXn4IVePBPBuUXVvyxEm-13" value="&lt;b style=&quot;border-color: var(--border-color); font-size: 9px;&quot;&gt;Set(&lt;/b&gt;&lt;font style=&quot;border-color: var(--border-color); font-size: 9px;&quot;&gt;&lt;br style=&quot;border-color: var(--border-color); font-size: 9px;&quot;&gt;&lt;/font&gt;Rule that allows an &lt;font color=&quot;#ff0000&quot;&gt;event with the ID 338123&lt;/font&gt; that belongs to the competition with the ID 1 and the sport with the ID 1&lt;b style=&quot;font-size: 9px;&quot;&gt;)&lt;/b&gt;" style="shape=partialRectangle;html=1;whiteSpace=wrap;connectable=0;strokeColor=#d6b656;overflow=hidden;fillColor=#fff2cc;top=0;left=0;bottom=0;right=0;pointerEvents=1;fontSize=9;" parent="hXn4IVePBPBuUXVvyxEm-12" vertex="1">
          <mxGeometry width="573" height="60" as="geometry">
            <mxRectangle width="573" height="60" as="alternateBounds" />
          </mxGeometry>
        </mxCell>
        <mxCell id="sRkpq67CHHRW4R_DKQx_-20" value="" style="shape=tableRow;horizontal=0;startSize=0;swimlaneHead=0;swimlaneBody=0;strokeColor=inherit;top=0;left=0;bottom=0;right=0;collapsible=0;dropTarget=0;fillColor=none;points=[[0,0.5],[1,0.5]];portConstraint=eastwest;fontSize=11;" parent="sRkpq67CHHRW4R_DKQx_-15" vertex="1">
          <mxGeometry y="332" width="573" height="58" as="geometry" />
        </mxCell>
        <mxCell id="sRkpq67CHHRW4R_DKQx_-21" value="&lt;font style=&quot;font-size: 9px;&quot;&gt;&lt;b style=&quot;border-color: var(--border-color); font-size: 9px;&quot;&gt;Set(&lt;/b&gt;&lt;br style=&quot;font-size: 9px;&quot;&gt;&lt;/font&gt;Rule that allows a &lt;font color=&quot;#ff0000&quot;&gt;market with the ID 671231&lt;/font&gt; that belongs to the competition with the ID 2&lt;b style=&quot;font-size: 9px;&quot;&gt;)&lt;/b&gt;" style="shape=partialRectangle;html=1;whiteSpace=wrap;connectable=0;strokeColor=#0e8088;overflow=hidden;fillColor=#b0e3e6;top=0;left=0;bottom=0;right=0;pointerEvents=1;fontSize=9;" parent="sRkpq67CHHRW4R_DKQx_-20" vertex="1">
          <mxGeometry width="573" height="58" as="geometry">
            <mxRectangle width="573" height="58" as="alternateBounds" />
          </mxGeometry>
        </mxCell>
        <mxCell id="hXn4IVePBPBuUXVvyxEm-14" style="shape=tableRow;horizontal=0;startSize=0;swimlaneHead=0;swimlaneBody=0;strokeColor=inherit;top=0;left=0;bottom=0;right=0;collapsible=0;dropTarget=0;fillColor=none;points=[[0,0.5],[1,0.5]];portConstraint=eastwest;fontSize=11;" parent="sRkpq67CHHRW4R_DKQx_-15" vertex="1">
          <mxGeometry y="390" width="573" height="60" as="geometry" />
        </mxCell>
        <mxCell id="hXn4IVePBPBuUXVvyxEm-15" value="&lt;font style=&quot;border-color: var(--border-color); font-size: 9px;&quot;&gt;&lt;b style=&quot;border-color: var(--border-color); font-size: 9px;&quot;&gt;Set(&lt;/b&gt;&lt;br style=&quot;border-color: var(--border-color); font-size: 9px;&quot;&gt;&lt;/font&gt;&lt;span style=&quot;border-color: var(--border-color); font-size: 9px;&quot;&gt;Rule that allows a&lt;/span&gt;&lt;b style=&quot;border-color: var(--border-color); font-size: 9px;&quot;&gt;&amp;nbsp;&lt;font style=&quot;border-color: var(--border-color); font-weight: 400;&quot; color=&quot;#ff0000&quot;&gt;market with the ID 781231&lt;/font&gt;&lt;span style=&quot;font-weight: 400;&quot;&gt;&amp;nbsp;that belongs to the competition with the ID 1&lt;/span&gt;)&lt;/b&gt;" style="shape=partialRectangle;html=1;whiteSpace=wrap;connectable=0;strokeColor=#d79b00;overflow=hidden;fillColor=#ffe6cc;top=0;left=0;bottom=0;right=0;pointerEvents=1;fontSize=9;" parent="hXn4IVePBPBuUXVvyxEm-14" vertex="1">
          <mxGeometry width="573" height="60" as="geometry">
            <mxRectangle width="573" height="60" as="alternateBounds" />
          </mxGeometry>
        </mxCell>
        <mxCell id="hXn4IVePBPBuUXVvyxEm-20" style="edgeStyle=orthogonalEdgeStyle;rounded=0;orthogonalLoop=1;jettySize=auto;html=1;exitX=1;exitY=0.5;exitDx=0;exitDy=0;entryX=0;entryY=0.5;entryDx=0;entryDy=0;" parent="1" source="sRkpq67CHHRW4R_DKQx_-2" target="sRkpq67CHHRW4R_DKQx_-16" edge="1">
          <mxGeometry relative="1" as="geometry" />
        </mxCell>
        <mxCell id="hXn4IVePBPBuUXVvyxEm-22" style="edgeStyle=orthogonalEdgeStyle;rounded=0;orthogonalLoop=1;jettySize=auto;html=1;exitX=1;exitY=0.5;exitDx=0;exitDy=0;" parent="1" source="sRkpq67CHHRW4R_DKQx_-6" target="sRkpq67CHHRW4R_DKQx_-31" edge="1">
          <mxGeometry relative="1" as="geometry" />
        </mxCell>
        <mxCell id="hXn4IVePBPBuUXVvyxEm-25" style="edgeStyle=orthogonalEdgeStyle;rounded=0;orthogonalLoop=1;jettySize=auto;html=1;exitX=1;exitY=0.5;exitDx=0;exitDy=0;entryX=0;entryY=0.5;entryDx=0;entryDy=0;" parent="1" source="sRkpq67CHHRW4R_DKQx_-10" target="sRkpq67CHHRW4R_DKQx_-29" edge="1">
          <mxGeometry relative="1" as="geometry" />
        </mxCell>
        <mxCell id="hXn4IVePBPBuUXVvyxEm-26" style="edgeStyle=orthogonalEdgeStyle;rounded=0;orthogonalLoop=1;jettySize=auto;html=1;exitX=1;exitY=0.5;exitDx=0;exitDy=0;entryX=0;entryY=0.5;entryDx=0;entryDy=0;" parent="1" source="sRkpq67CHHRW4R_DKQx_-24" target="sRkpq67CHHRW4R_DKQx_-18" edge="1">
          <mxGeometry relative="1" as="geometry" />
        </mxCell>
        <mxCell id="hXn4IVePBPBuUXVvyxEm-27" style="edgeStyle=orthogonalEdgeStyle;rounded=0;orthogonalLoop=1;jettySize=auto;html=1;exitX=1;exitY=0.5;exitDx=0;exitDy=0;entryX=0;entryY=0.5;entryDx=0;entryDy=0;" parent="1" source="hXn4IVePBPBuUXVvyxEm-8" target="hXn4IVePBPBuUXVvyxEm-12" edge="1">
          <mxGeometry relative="1" as="geometry" />
        </mxCell>
        <mxCell id="hXn4IVePBPBuUXVvyxEm-28" style="edgeStyle=orthogonalEdgeStyle;rounded=0;orthogonalLoop=1;jettySize=auto;html=1;exitX=1;exitY=0.5;exitDx=0;exitDy=0;entryX=0;entryY=0.5;entryDx=0;entryDy=0;" parent="1" source="hXn4IVePBPBuUXVvyxEm-10" target="sRkpq67CHHRW4R_DKQx_-20" edge="1">
          <mxGeometry relative="1" as="geometry" />
        </mxCell>
        <mxCell id="hXn4IVePBPBuUXVvyxEm-31" style="edgeStyle=orthogonalEdgeStyle;rounded=0;orthogonalLoop=1;jettySize=auto;html=1;exitX=1;exitY=0.5;exitDx=0;exitDy=0;entryX=0;entryY=0.5;entryDx=0;entryDy=0;" parent="1" source="sRkpq67CHHRW4R_DKQx_-22" target="hXn4IVePBPBuUXVvyxEm-14" edge="1">
          <mxGeometry relative="1" as="geometry" />
        </mxCell>
      </root>
    </mxGraphModel>
  </diagram>
</mxfile>
